HIERARCHY
ROOT Hips
{
 OFFSET 0.000000 0.000000 0.000000
 CHANNELS 6 Xposition Yposition Zposition Yrotation Xrotation Zrotation
 JOINT Chest
 {
  OFFSET 0.000000 9.588913 -0.003946
  CHANNELS 3 Yrotation Xrotation Zrotation
  JOINT Chest2
  {
   OFFSET 0.000000 9.541882 0.008053
   CHANNELS 3 Yrotation Xrotation Zrotation
   JOINT Chest3
   {
    OFFSET 0.000000 9.501360 0.000000
    CHANNELS 3 Yrotation Xrotation Zrotation
    JOINT Chest4
    {
     OFFSET 0.000000 9.491660 0.000000
     CHANNELS 3 Yrotation Xrotation Zrotation
     JOINT Neck
     {
      OFFSET 0.000000 14.331917 0.000000
      CHANNELS 3 Yrotation Xrotation Zrotation
      JOINT Head
      {
       OFFSET 0.000000 8.884799 0.017034
       CHANNELS 3 Yrotation Xrotation Zrotation
       End Site
       {
        OFFSET 0.000000 16.896195 0.008993
       }
      }
     }
     JOINT RightCollar
     {
      OFFSET -2.923010 9.499495 0.000000
      CHANNELS 3 Yrotation Xrotation Zrotation
      JOINT RightShoulder
      {
       OFFSET -13.795216 0.000000 0.000000
       CHANNELS 3 Yrotation Xrotation Zrotation
       JOINT RightElbow
       {
        OFFSET -30.272209 0.000000 0.000000
        CHANNELS 3 Yrotation Xrotation Zrotation
        JOINT RightWrist
        {
         OFFSET -24.478199 0.000000 0.000000
         CHANNELS 3 Yrotation Xrotation Zrotation
         End Site
         {
          OFFSET -18.090752 0.000000 0.000000
         }
        }
       }
      }
     }
     JOINT LeftCollar
     {
      OFFSET 2.923010 9.499495 0.000000
      CHANNELS 3 Yrotation Xrotation Zrotation
      JOINT LeftShoulder
      {
       OFFSET 13.795216 0.000000 0.000000
       CHANNELS 3 Yrotation Xrotation Zrotation
       JOINT LeftElbow
       {
        OFFSET 30.272209 0.000000 0.000000
        CHANNELS 3 Yrotation Xrotation Zrotation
        JOINT LeftWrist
        {
         OFFSET 24.478199 0.000000 0.000000
         CHANNELS 3 Yrotation Xrotation Zrotation
         End Site
         {
          OFFSET 18.090752 0.000000 0.000000
         }
        }
       }
      }
     }
    }
   }
  }
 }
 JOINT RightHip
 {
  OFFSET -7.826875 0.019532 0.001973
  CHANNELS 3 Yrotation Xrotation Zrotation
  JOINT RightKnee
  {
   OFFSET 0.000000 -40.546152 -0.001885
   CHANNELS 3 Yrotation Xrotation Zrotation
   JOINT RightAnkle
   {
    OFFSET 0.000000 -39.417092 -0.003189
    CHANNELS 3 Yrotation Xrotation Zrotation
    JOINT RightToe
    {
     OFFSET 0.000000 -7.579396 17.243563
     CHANNELS 3 Yrotation Xrotation Zrotation
     End Site
     {
      OFFSET 0.000000 -1.500329 6.694466
     }
    }
   }
  }
 }
 JOINT LeftHip
 {
  OFFSET 7.826875 0.019532 0.001973
  CHANNELS 3 Yrotation Xrotation Zrotation
  JOINT LeftKnee
  {
   OFFSET 0.000000 -40.546152 -0.001885
   CHANNELS 3 Yrotation Xrotation Zrotation
   JOINT LeftAnkle
   {
    OFFSET 0.000000 -39.417092 -0.003189
    CHANNELS 3 Yrotation Xrotation Zrotation
    JOINT LeftToe
    {
     OFFSET 0.000000 -7.579396 17.243563
     CHANNELS 3 Yrotation Xrotation Zrotation
     End Site
     {
      OFFSET 0.000000 -1.500329 6.694466
     }
    }
   }
  }
 }
}
MOTION
Frames: 12
Frame Time: 0.008333
0.000000 87.345680 0.000000 0.000000 -5.767889 0.000000 0.000000 11.653876 0.000000 0.000000 -5.885988 0.000000 0.000000 -0.000000 0.000000 0.000000 -0.000000 0.000000 0.000000 12.528808 0.000000 0.000000 0.711711 0.000000 0.000000 -0.000000 0.000000 0.000000 -0.000000 0.000000 2.309063 -0.000000 0.000000 -2.309063 -0.000000 -0.000000 0.000000 -0.000000 0.000000 0.000000 0.000000 0.000000 -2.309063 0.000000 0.000000 2.309063 -0.000000 0.000000 0.000000 8.520374 0.000000 0.000000 1.905768 0.000000 -0.000000 -4.658254 0.000000 0.000000 -0.000000 0.000000 0.000000 8.520374 0.000000 0.000000 1.905768 0.000000 -0.000000 -4.658254 0.000000 0.000000 -0.000000 0.000000
-10.020224 50.763167 -15.981592 24.367658 -32.114856 -4.977875 4.337835 15.188549 4.226305 2.335855 8.750742 2.139845 2.980265 10.923690 2.739281 2.335855 8.750742 2.139845 -0.597826 15.049431 -5.104701 0.536377 -9.829330 -5.299231 1.571678 0.017913 -8.550871 10.323062 -4.478544 80.076856 70.145905 4.066122 23.228493 -8.443925 -7.963894 -15.055917 14.869090 -0.590859 -1.134153 -4.664439 -6.645869 -84.354549 -64.893876 7.685271 -47.071406 0.655567 7.387167 30.571503 -19.015976 -45.200053 23.119831 -125.045906 66.725772 -136.542701 -15.511507 -22.173571 10.812610 -0.245942 0.274091 -0.107291 20.160878 -56.063787 8.815401 145.907721 68.559804 162.940809 -5.895847 -23.946176 -1.624384 0.098314 -0.243265 0.044956
-10.020980 50.762975 -15.981805 24.359241 -32.116007 -4.982780 4.346324 15.189369 4.225091 2.338579 8.751438 2.138811 2.983662 10.924549 2.738056 2.338579 8.751438 2.138811 -0.596746 15.036615 -5.093393 0.534925 -9.843387 -5.286992 1.575134 0.013366 -8.553540 10.326524 -4.483625 80.077560 70.123684 4.061477 23.222936 -8.421076 -7.964037 -15.071552 14.858865 -0.596240 -1.136703 -4.637021 -6.638666 -84.351790 -64.905720 7.697199 -47.098713 0.644706 7.389356 30.585855 -19.015681 -45.197672 23.124845 -125.038815 66.728277 -136.532957 -15.498558 -22.173170 10.805677 -0.242961 0.275263 -0.106682 20.158976 -56.066182 8.832086 145.900191 68.559427 162.934099 -5.901508 -23.952830 -1.619239 0.093704 -0.237836 0.042468
-10.021599 50.762776 -15.982149 24.353189 -32.117844 -4.987301 4.353352 15.190648 4.224551 2.340137 8.752578 2.137279 2.985587 10.925975 2.736183 2.340138 8.752578 2.137279 -0.592187 15.023415 -5.081916 0.537142 -9.857830 -5.275390 1.580838 0.007361 -8.556486 10.327061 -4.485909 80.075876 70.104718 4.056171 23.220268 -8.399279 -7.966106 -15.084730 14.845792 -0.603653 -1.137566 -4.608364 -6.630295 -84.349577 -64.913666 7.706602 -47.123063 0.629374 7.391513 30.601050 -19.017587 -45.195030 23.134211 -125.029827 66.730080 -136.524260 -15.496904 -22.167831 10.799824 -0.235647 0.274965 -0.102771 20.158189 -56.067557 8.844577 145.888428 68.559015 162.923970 -5.906604 -23.958043 -1.614385 0.089637 -0.232857 0.039863
-10.021462 50.762580 -15.982769 24.354701 -32.120532 -4.989738 4.355721 15.193712 4.220680 2.340601 8.753588 2.134860 2.986118 10.927251 2.733169 2.340601 8.753588 2.134860 -0.585263 15.010275 -5.069498 0.541656 -9.872227 -5.263303 1.587127 0.000477 -8.555163 10.319604 -4.485572 80.072634 70.091082 4.051141 23.226145 -8.378855 -7.968920 -15.098098 14.828448 -0.610804 -1.134675 -4.584006 -6.623899 -84.347451 -64.918142 7.714173 -47.139614 0.614001 7.393492 30.617997 -19.018855 -45.193148 23.141055 -125.022916 66.729949 -136.518511 -15.514082 -22.159017 10.800512 -0.226938 0.274189 -0.097800 20.158282 -56.066677 8.847603 145.884595 68.559290 162.922544 -5.916247 -23.960610 -1.605819 0.083666 -0.229715 0.035902
-10.021406 50.762133 -15.983831 24.360482 -32.120679 -4.992031 4.356481 15.196370 4.215234 2.341093 8.754040 2.132113 2.986672 10.927831 2.729741 2.341093 8.754040 2.132113 -0.577386 14.996980 -5.055364 0.546787 -9.886847 -5.249550 1.586311 -0.008655 -8.549488 10.309989 -4.483291 80.070083 70.080077 4.048281 23.239688 -8.359285 -7.969655 -15.110312 14.810314 -0.617238 -1.128555 -4.564565 -6.620587 -84.346431 -64.922465 7.723303 -47.152857 0.602395 7.397393 30.635925 -19.021678 -45.194679 23.144539 -125.015720 66.727394 -136.510491 -15.531733 -22.151960 10.799993 -0.217128 0.274101 -0.091961 20.153875 -56.066989 8.847375 145.885768 68.560811 162.924761 -5.925086 -23.961542 -1.596094 0.077133 -0.226536 0.030252
-10.022600 50.761511 -15.984865 24.364989 -32.118204 -4.998643 4.360271 15.196116 4.214749 2.342039 8.754534 2.129489 2.987798 10.928462 2.726479 2.342039 8.754534 2.129489 -0.568506 14.984003 -5.040016 0.552702 -9.901168 -5.234694 1.576455 -0.018628 -8.543584 10.303114 -4.481931 80.068649 70.069258 4.044697 23.257068 -8.340039 -7.969226 -15.119070 14.791782 -0.624263 -1.122304 -4.545862 -6.618151 -84.344783 -64.931063 7.735488 -47.167488 0.596985 7.401555 30.652484 -19.029764 -45.196801 23.152386 -125.007681 66.724892 -136.500996 -15.534484 -22.148828 10.789008 -0.198510 0.274420 -0.081935 20.139966 -56.071478 8.855070 145.889239 68.562122 162.928514 -5.926254 -23.961831 -1.590069 0.069332 -0.223340 0.024202
-10.024804 50.761266 -15.984999 24.364022 -32.119186 -5.008277 4.366098 15.197153 4.217894 2.343961 8.755351 2.127276 2.990162 10.929486 2.723759 2.343961 8.755351 2.127276 -0.557294 14.973080 -5.024692 0.561100 -9.913290 -5.220414 1.572005 -0.023404 -8.543558 10.293754 -4.484991 80.069805 70.057369 4.034985 23.272439 -8.319994 -7.969487 -15.127653 14.774380 -0.632305 -1.117907 -4.537182 -6.615503 -84.337928 -64.940166 7.742018 -47.176357 0.595472 7.401151 30.669221 -19.038234 -45.193390 23.163966 -124.997615 66.721222 -136.488771 -15.528155 -22.148646 10.775660 -0.179501 0.274651 -0.073004 20.120686 -56.075035 8.874869 145.903097 68.563700 162.944743 -5.918631 -23.962110 -1.592654 0.065244 -0.221502 0.021891
-10.026806 50.761504 -15.984362 24.360951 -32.125148 -5.016009 4.370323 15.202591 4.218197 2.346853 8.755852 2.125332 2.993744 10.930107 2.721396 2.346853 8.755852 2.125332 -0.544597 14.964916 -5.008774 0.570933 -9.922499 -5.205828 1.575843 -0.023068 -8.548763 10.281438 -4.490215 80.075293 70.043172 4.020507 23.281298 -8.298277 -7.972013 -15.137543 14.760807 -0.641109 -1.115117 -4.547508 -6.612836 -84.325337 -64.942142 7.738204 -47.173972 0.594273 7.395511 30.687566 -19.042981 -45.185179 23.169303 -124.986081 66.715620 -136.472902 -15.526374 -22.150004 10.771653 -0.175759 0.275427 -0.072214 20.101754 -56.072771 8.897539 145.925858 68.567002 162.969880 -5.902340 -23.962077 -1.604496 0.070276 -0.220480 0.025032
-10.027766 50.761718 -15.983995 24.360834 -32.130647 -5.017631 4.370889 15.208784 4.210245 2.349367 8.755550 2.123497 2.996849 10.929726 2.719153 2.349367 8.755550 2.123496 -0.531180 14.959252 -4.991990 0.581325 -9.929085 -5.190460 1.578624 -0.021534 -8.553021 10.274634 -4.492549 80.084232 70.026828 4.006312 23.282363 -8.274358 -7.972915 -15.146030 14.751594 -0.647279 -1.113689 -4.558304 -6.610914 -84.311630 -64.939561 7.735745 -47.174707 0.590245 7.388317 30.704130 -19.045380 -45.180274 23.161984 -124.975039 66.709585 -136.457624 -15.530518 -22.149940 10.778294 -0.190891 0.275769 -0.079879 20.089894 -56.067570 8.909049 145.949271 68.571641 162.995548 -5.891213 -23.961321 -1.615853 0.077804 -0.219761 0.029054
-10.028625 50.761771 -15.983901 24.359953 -32.133315 -5.016595 4.370427 15.212558 4.199068 2.351651 8.755054 2.121383 2.999657 10.929106 2.716554 2.351651 8.755054 2.121383 -0.516411 14.955393 -4.975215 0.593151 -9.933746 -5.175421 1.579010 -0.021098 -8.553033 10.278123 -4.490176 80.092922 70.011442 3.994070 23.276825 -8.249721 -7.971836 -15.153983 14.743974 -0.650315 -1.111859 -4.559707 -6.611827 -84.299231 -64.935421 7.739135 -47.183969 0.582394 7.380858 30.717727 -19.049221 -45.178826 23.151495 -124.963527 66.703639 -136.442862 -15.528543 -22.151420 10.783354 -0.208238 0.276143 -0.088515 20.082228 -56.064924 8.916175 145.976840 68.576888 163.026416 -5.885749 -23.959086 -1.624139 0.082207 -0.220205 0.031503
-10.030230 50.761800 -15.983679 24.356181 -32.133800 -5.017748 4.372195 15.214907 4.192045 2.354589 8.754856 2.118553 3.003271 10.928860 2.713076 2.354589 8.754856 2.118553 -0.501808 14.952255 -4.958427 0.604795 -9.937643 -5.160334 1.575349 -0.023958 -8.549368 10.286944 -4.486252 80.099660 69.997835 3.985886 23.271610 -8.223196 -7.974150 -15.165542 14.732194 -0.655546 -1.108310 -4.548728 -6.613104 -84.290388 -64.932720 7.748332 -47.201988 0.575302 7.375805 30.725799 -19.055371 -45.176719 23.148102 -124.961945 66.703087 -136.438640 -15.523919 -22.157176 10.780861 -0.214403 0.278478 -0.092206 20.072404 -56.066323 8.928309 146.004623 68.581210 163.055413 -5.874567 -23.956523 -1.632192 0.083985 -0.221082 0.032877
